<svg xmlns="http://www.w3.org/2000/svg" xmlns:xlink="http://www.w3.org/1999/xlink" width="500" zoomAndPan="magnify" viewBox="0 0 375 374.999991" height="500" preserveAspectRatio="xMidYMid meet" version="1.0"><defs><clipPath id="0758fb87b4"><path d="M 17 11.015625 L 375 11.015625 L 375 299 L 17 299 Z M 17 11.015625 " clip-rule="nonzero"/></clipPath></defs><path fill="#ecf0f1" d="M 156.210938 76.140625 C 110.277344 76.140625 64.34375 76.128906 18.410156 76.105469 C 14.4375 76.105469 10.640625 76.300781 7.128906 78.46875 C 2.753906 81.183594 -0.015625 86.6875 0.863281 91.695312 C 4.027344 109.605469 7.3125 127.492188 10.464844 145.414062 C 14.402344 167.664062 18.316406 189.917969 22.207031 212.175781 C 22.523438 213.964844 22.992188 215.726562 23.425781 217.496094 C 25.273438 224.976562 29.335938 228.679688 36.917969 229.3125 C 51.707031 230.523438 66.511719 231.496094 81.296875 232.722656 C 97.097656 234.039062 112.886719 235.550781 128.691406 236.945312 C 135.425781 237.542969 142.167969 238.089844 148.910156 238.597656 C 165.023438 239.792969 181.101562 240.894531 197.191406 242.136719 C 217.164062 243.671875 237.132812 245.265625 257.097656 246.917969 C 262.015625 247.3125 266.925781 248.109375 271.847656 248.179688 C 278.863281 248.277344 283.792969 244.417969 285.21875 237.46875 C 287.515625 226.285156 289.402344 215.007812 291.441406 203.769531 C 296.046875 178.476562 300.644531 153.179688 305.230469 127.878906 C 307.316406 116.390625 309.421875 104.894531 311.453125 93.394531 C 313.125 83.929688 306.929688 76.492188 297.132812 76.203125 C 292.957031 76.085938 288.777344 76.175781 284.605469 76.175781 Z M 212.984375 141.714844 L 226.257812 141.714844 C 226.519531 141.714844 226.792969 141.714844 227.035156 141.714844 C 233.632812 141.683594 234.296875 140.882812 233.746094 148.34375 C 233.09375 157.148438 232.488281 165.953125 231.757812 174.746094 C 231.433594 178.570312 230.566406 179.238281 226.84375 178.996094 C 220.625 178.59375 214.414062 178.167969 208.207031 177.710938 C 204.078125 177.402344 199.957031 176.921875 195.820312 176.671875 C 193.136719 176.507812 191.234375 176.097656 192.335938 172.605469 C 192.785156 171.175781 192.496094 169.503906 192.523438 167.941406 C 192.640625 160.421875 192.824219 152.851562 192.835938 145.304688 C 192.835938 142.59375 193.984375 141.648438 196.59375 141.695312 C 202.050781 141.785156 207.507812 141.714844 212.984375 141.714844 Z M 154.757812 93.273438 C 160.996094 93.273438 167.238281 93.34375 173.472656 93.242188 C 176.089844 93.203125 177.300781 94.101562 177.148438 96.847656 C 176.679688 105.652344 176.316406 114.460938 175.902344 123.269531 C 175.8125 125.1875 174.738281 125.957031 172.878906 125.957031 C 169.757812 125.929688 166.636719 125.957031 163.519531 125.957031 C 154.925781 125.957031 146.332031 125.925781 137.78125 125.957031 C 135.347656 125.957031 133.636719 125.167969 133.578125 122.527344 C 133.378906 113.6875 133.25 104.851562 133.136719 96.015625 C 133.136719 94.140625 134.09375 93.230469 136.039062 93.242188 C 142.277344 93.300781 148.515625 93.273438 154.757812 93.273438 Z M 92.480469 93.273438 C 98.722656 93.273438 104.957031 93.328125 111.199219 93.273438 C 113.960938 93.242188 115.765625 94.117188 115.8125 97.167969 C 115.949219 105.765625 116.050781 114.328125 116.210938 122.90625 C 116.253906 125.296875 115.015625 126 112.832031 125.992188 C 100.871094 125.960938 88.914062 125.992188 76.949219 125.992188 C 75.1875 125.992188 73.914062 125.347656 73.769531 123.398438 C 73.113281 114.609375 72.511719 105.816406 71.824219 97.03125 C 71.621094 94.40625 72.59375 93.226562 75.324219 93.269531 C 81.039062 93.351562 86.757812 93.28125 92.480469 93.273438 Z M 215.847656 93.273438 C 222.089844 93.273438 228.332031 93.199219 234.574219 93.300781 C 238.332031 93.359375 238.570312 93.5 238.332031 97.398438 C 237.839844 105.6875 237.070312 113.960938 236.457031 122.238281 C 236.230469 125.289062 234.421875 126 231.6875 126 C 220.503906 125.925781 209.316406 125.898438 198.128906 126.027344 C 195.132812 126.0625 193.886719 125.070312 193.960938 122.03125 C 194.175781 113.707031 194.359375 105.378906 194.3125 97.0625 C 194.3125 93.746094 195.960938 93.214844 198.671875 93.257812 C 204.398438 93.328125 210.121094 93.269531 215.847656 93.273438 Z M 154.507812 141.722656 C 160.238281 141.722656 165.976562 141.777344 171.695312 141.695312 C 174.117188 141.664062 175.710938 142.140625 175.558594 145.078125 C 175.085938 154.425781 174.71875 163.785156 174.300781 173.136719 C 174.214844 174.976562 173.34375 175.972656 171.351562 175.859375 C 162.003906 175.324219 152.652344 174.859375 143.308594 174.296875 C 141.5 174.183594 139.730469 173.628906 137.933594 173.464844 C 135.5625 173.25 134.992188 171.851562 134.976562 169.746094 C 134.898438 161.6875 134.878906 153.582031 134.589844 145.507812 C 134.464844 142.164062 136.101562 141.625 138.855469 141.679688 C 144.074219 141.785156 149.289062 141.710938 154.507812 141.722656 Z M 95.894531 141.722656 C 101.890625 141.722656 107.878906 141.75 113.875 141.722656 C 115.980469 141.722656 117.34375 142.257812 117.367188 144.746094 C 117.441406 153.082031 117.609375 161.398438 117.742188 169.757812 C 117.78125 172.121094 116.667969 172.867188 114.328125 172.707031 C 106.269531 172.167969 98.238281 171.832031 90.195312 171.308594 C 87.097656 171.109375 84.019531 170.535156 80.917969 170.308594 C 78.96875 170.164062 78.191406 169.085938 77.925781 167.382812 C 77.609375 165.335938 77.238281 163.296875 77.050781 161.238281 C 76.570312 156.066406 76.234375 150.882812 75.71875 145.71875 C 75.382812 142.320312 75.675781 141.8125 79.480469 141.742188 C 84.949219 141.628906 90.40625 141.707031 95.894531 141.707031 Z M 267.9375 141.722656 C 271.59375 141.722656 275.246094 141.667969 278.898438 141.722656 C 284.210938 141.820312 284.511719 141.898438 283.773438 146.945312 C 282.257812 157.226562 280.425781 167.453125 278.632812 177.6875 C 278.308594 179.542969 277.402344 181.1875 275.0625 181.101562 C 267.769531 180.851562 260.457031 180.785156 253.183594 180.226562 C 249.332031 179.929688 248.886719 179.152344 249.117188 175.144531 C 249.683594 166.050781 250.453125 156.96875 251.175781 147.882812 C 251.234375 147.117188 251.714844 146.386719 251.761719 145.621094 C 251.957031 142.8125 253.125 141.457031 256.199219 141.652344 C 260.097656 141.894531 264.027344 141.710938 267.9375 141.707031 Z M 190.910156 208.972656 L 191.328125 208.972656 C 191.328125 204.539062 191.28125 200.101562 191.328125 195.671875 C 191.367188 193.03125 192.742188 192.050781 195.414062 192.449219 C 198.496094 192.878906 201.617188 193.03125 204.726562 193.246094 C 211.710938 193.730469 218.738281 194.269531 225.746094 194.597656 C 228.527344 194.726562 229.339844 196.003906 229.136719 198.539062 C 228.441406 207.097656 227.820312 215.660156 227.160156 224.222656 C 226.949219 226.90625 224.96875 226.761719 223.136719 226.644531 C 213.527344 226.019531 203.925781 225.28125 194.316406 224.738281 C 191.523438 224.582031 190.820312 223.183594 190.867188 220.730469 C 190.96875 216.796875 190.910156 212.882812 190.910156 208.972656 Z M 274.914062 93.28125 C 279.851562 93.28125 284.78125 93.367188 289.714844 93.246094 C 292.496094 93.183594 293.472656 94.320312 292.988281 97.007812 C 291.4375 105.386719 289.820312 113.761719 288.417969 122.167969 C 287.929688 125.117188 286.378906 126.015625 283.636719 125.992188 C 274.804688 125.929688 265.980469 125.90625 257.15625 125.992188 C 254.308594 126.019531 253.578125 124.644531 253.78125 122.148438 C 254.453125 113.886719 255.125 105.625 255.699219 97.363281 C 255.898438 94.484375 257.183594 93.1875 260.113281 93.253906 C 265.046875 93.355469 269.984375 93.28125 274.914062 93.28125 Z M 136.171875 205.46875 C 136.171875 200.605469 136.125 196.164062 136.171875 191.734375 C 136.171875 189.894531 137.011719 189.144531 139.136719 189.304688 C 146.40625 189.84375 153.699219 190.046875 160.980469 190.503906 C 164.34375 190.71875 167.679688 191.339844 171.042969 191.542969 C 173.46875 191.691406 174.054688 192.921875 174.011719 195.078125 C 173.84375 202.386719 173.8125 209.695312 173.644531 217 C 173.613281 218.28125 173.472656 219.71875 172.851562 220.761719 C 172.3125 221.644531 171 222.640625 170.070312 222.597656 C 163.574219 222.304688 157.070312 221.90625 150.601562 221.230469 C 146.03125 220.746094 141.507812 219.777344 136.960938 219.027344 C 136.703125 214.359375 136.425781 209.695312 136.171875 205.46875 Z M 118.984375 203.726562 L 119.191406 203.726562 C 119.191406 207.113281 119.230469 210.5 119.191406 213.886719 C 119.128906 218.402344 119.085938 218.609375 114.988281 218.28125 C 104.894531 217.464844 94.820312 216.425781 84.738281 215.496094 C 83.007812 215.339844 81.84375 214.777344 81.691406 212.761719 C 81.15625 205.511719 80.410156 198.257812 80.007812 191.011719 C 79.742188 186.386719 80.371094 185.996094 84.722656 186.410156 C 87.304688 186.652344 89.894531 186.859375 92.492188 186.945312 C 97.957031 187.160156 103.449219 187.03125 108.890625 187.515625 C 118.839844 188.402344 118.828125 188.542969 118.984375 198.257812 C 119.003906 200.0625 118.976562 201.886719 118.976562 203.710938 Z M 35.992188 93.28125 C 40.164062 93.28125 44.332031 93.226562 48.507812 93.28125 C 53.109375 93.351562 53.453125 93.355469 54.011719 97.742188 C 55.054688 105.984375 55.625 114.277344 56.441406 122.550781 C 56.65625 124.789062 55.8125 125.960938 53.417969 125.949219 C 45.074219 125.917969 36.730469 125.886719 28.390625 125.984375 C 25.519531 126.015625 24.179688 124.847656 23.707031 122.007812 C 22.3125 113.5625 20.75 105.144531 19.203125 96.730469 C 18.789062 94.457031 19.425781 93.238281 21.890625 93.257812 C 26.605469 93.3125 31.316406 93.28125 35.992188 93.28125 Z M 244.6875 223.8125 C 245.257812 216.292969 245.804688 208.773438 246.421875 201.25 C 246.507812 200.230469 247.066406 199.246094 247.175781 198.226562 C 247.421875 195.921875 248.601562 195.179688 250.863281 195.359375 C 257.347656 195.863281 263.847656 196.21875 270.335938 196.648438 C 274.382812 196.917969 274.898438 197.398438 274.230469 201.371094 C 272.761719 210.078125 271.105469 218.757812 269.5625 227.453125 C 269.1875 229.605469 268.101562 230.738281 265.875 230.566406 C 260.425781 230.144531 254.980469 229.695312 249.53125 229.28125 C 244.433594 228.890625 244.433594 228.90625 244.6875 223.835938 Z M 42.382812 141.710938 C 46.558594 141.710938 50.730469 141.757812 54.898438 141.710938 C 57.199219 141.671875 58.074219 142.738281 58.246094 144.964844 C 58.78125 151.949219 59.480469 158.933594 60.089844 165.949219 C 60.355469 168.984375 59.707031 169.707031 56.863281 169.488281 C 52.71875 169.183594 48.585938 168.738281 44.441406 168.460938 C 41.320312 168.265625 38.148438 168.460938 35.070312 168.027344 C 33.824219 167.84375 31.984375 166.542969 31.757812 165.46875 C 30.355469 158.867188 29.34375 152.1875 28.195312 145.53125 C 27.753906 142.957031 28.605469 141.605469 31.417969 141.683594 C 35.078125 141.792969 38.730469 141.710938 42.382812 141.710938 Z M 59.132812 213.746094 C 53.519531 213.210938 48.351562 212.671875 43.171875 212.253906 C 41.070312 212.074219 39.757812 211.179688 39.414062 209.03125 C 38.105469 201.355469 36.769531 193.683594 35.585938 185.992188 C 35.492188 185.382812 36.484375 184.003906 36.925781 184.023438 C 44.714844 184.382812 52.496094 184.839844 60.269531 185.394531 C 62.238281 185.539062 62.457031 187.226562 62.589844 188.878906 C 63.082031 195.09375 63.664062 201.304688 64.164062 207.527344 C 64.273438 208.820312 64.566406 210.210938 64.164062 211.394531 C 63.855469 212.332031 62.753906 213.234375 61.785156 213.65625 C 60.90625 214.0625 59.734375 213.746094 59.132812 213.746094 Z M 59.132812 213.746094 " fill-opacity="1" fill-rule="nonzero"/><g clip-path="url(#0758fb87b4)"><path fill="#ecf0f1" d="M 149.929688 298.535156 C 189.878906 298.535156 229.835938 298.449219 269.777344 298.609375 C 277.835938 298.640625 284.488281 296.292969 290.050781 290.445312 C 297.867188 282.230469 298.453125 269.203125 292.886719 259.152344 C 290.867188 255.507812 288.589844 251.988281 286.8125 248.234375 C 285.929688 246.371094 285.625 244.417969 285.898438 242.378906 C 291.210938 212.453125 296.738281 182.558594 302.050781 152.636719 C 306.984375 125.003906 311.722656 97.347656 316.582031 69.699219 C 318.195312 60.480469 319.878906 51.277344 321.378906 42.042969 C 321.953125 38.53125 323.527344 36.671875 327.238281 36.066406 C 337.503906 34.390625 347.710938 32.347656 357.917969 30.464844 C 360.984375 29.898438 364.085938 29.492188 367.125 28.820312 C 371.960938 27.746094 374.976562 23.726562 374.484375 19.261719 C 373.945312 14.59375 369.648438 11.101562 364.378906 11.742188 C 357.933594 12.554688 351.558594 13.847656 345.160156 15.007812 C 333.910156 17.042969 322.683594 19.203125 311.414062 21.144531 C 308.691406 21.609375 307.378906 22.691406 306.925781 25.511719 C 305.667969 33.195312 304.082031 40.832031 302.6875 48.496094 C 298.554688 71.25 294.371094 93.996094 290.363281 116.769531 C 285.363281 145.179688 280.566406 173.628906 275.589844 202.046875 C 273.171875 215.855469 270.5625 229.640625 268 243.410156 C 267.324219 247.046875 267.410156 250.285156 269.664062 253.613281 C 272.699219 258.144531 274.71875 263.347656 277.722656 267.910156 C 281.300781 273.355469 278.066406 281.972656 269.769531 281.230469 C 267.957031 281.070312 266.113281 281.230469 264.289062 281.230469 L 30.855469 281.230469 C 28.769531 281.230469 26.648438 281.066406 24.601562 281.359375 C 24.050781 281.4375 23.511719 281.566406 22.980469 281.746094 C 22.453125 281.929688 21.949219 282.160156 21.464844 282.4375 C 20.984375 282.71875 20.53125 283.039062 20.109375 283.40625 C 19.691406 283.773438 19.308594 284.175781 18.964844 284.617188 C 18.621094 285.054688 18.324219 285.523438 18.074219 286.023438 C 17.820312 286.519531 17.617188 287.039062 17.464844 287.574219 C 17.3125 288.109375 17.214844 288.65625 17.167969 289.214844 C 17.121094 289.769531 17.128906 290.324219 17.191406 290.878906 C 17.613281 295.589844 20.386719 298.210938 25.386719 298.496094 C 27.464844 298.621094 29.5625 298.539062 31.648438 298.539062 Z M 149.929688 298.535156 " fill-opacity="1" fill-rule="nonzero"/></g><path fill="#ecf0f1" d="M 81.574219 334.839844 C 82.648438 321.410156 69.757812 305.6875 53.140625 305.953125 C 37.324219 306.199219 24.203125 317.296875 23.980469 334.152344 C 23.757812 350.058594 34.722656 363.53125 52.808594 363.53125 C 71.605469 363.527344 82.21875 347.871094 81.574219 334.839844 Z M 52.566406 321.648438 C 60.371094 321.648438 66.089844 327.257812 65.960938 334.835938 C 65.835938 342.105469 59.664062 348.035156 52.207031 348.042969 C 46.109375 348.042969 39.375 340.917969 39.429688 334.503906 C 39.507812 327.648438 45.617188 321.667969 52.589844 321.648438 Z M 52.566406 321.648438 " fill-opacity="1" fill-rule="nonzero"/><path fill="#ecf0f1" d="M 214.445312 334.925781 C 214.507812 350.667969 227.292969 363.855469 242.414062 363.777344 C 258.910156 363.699219 271.109375 350.949219 271.578125 334.40625 C 272.007812 319.042969 258.148438 305.695312 242.75 305.8125 C 227.96875 305.945312 213.074219 319.515625 214.445312 334.925781 Z M 230.070312 335.640625 C 229.738281 328.121094 234.691406 322.117188 241.582031 321.675781 C 249.457031 321.195312 255.34375 326.304688 255.828125 333.714844 C 256.328125 341.328125 251.234375 347.375 243.472656 347.78125 C 242.632812 347.839844 241.792969 347.8125 240.953125 347.699219 C 240.117188 347.589844 239.300781 347.394531 238.503906 347.117188 C 237.707031 346.84375 236.945312 346.488281 236.21875 346.058594 C 235.492188 345.628906 234.816406 345.128906 234.1875 344.5625 C 233.5625 343.996094 233 343.371094 232.5 342.691406 C 232 342.011719 231.574219 341.289062 231.21875 340.523438 C 230.867188 339.753906 230.59375 338.960938 230.398438 338.140625 C 230.207031 337.316406 230.097656 336.484375 230.070312 335.640625 Z M 230.070312 335.640625 " fill-opacity="1" fill-rule="nonzero"/></svg>