<svg xmlns="http://www.w3.org/2000/svg" xmlns:xlink="http://www.w3.org/1999/xlink" width="500" zoomAndPan="magnify" viewBox="0 0 375 374.999991" height="500" preserveAspectRatio="xMidYMid meet" version="1.0"><defs><clipPath id="8d8b35d384"><path d="M 78 8.671875 L 330 8.671875 L 330 366 L 78 366 Z M 78 8.671875 " clip-rule="nonzero"/></clipPath><clipPath id="29cb34f12a"><path d="M 294 8.671875 L 375 8.671875 L 375 68 L 294 68 Z M 294 8.671875 " clip-rule="nonzero"/></clipPath><clipPath id="99c41c26f4"><path d="M 33 291 L 253 291 L 253 366.421875 L 33 366.421875 Z M 33 291 " clip-rule="nonzero"/></clipPath></defs><g clip-path="url(#8d8b35d384)"><path fill="#2980b9" d="M 245.792969 365.890625 C 242.5 365.890625 239.644531 363.472656 239.207031 359.960938 C 238.984375 356.449219 241.621094 353.15625 245.132812 352.714844 C 273.015625 349.863281 294.09375 326.367188 294.09375 298.265625 L 294.09375 60.925781 C 294.09375 57.195312 296.949219 54.339844 300.679688 54.339844 C 304.195312 54.339844 307.269531 57.195312 307.269531 60.925781 L 307.269531 298.265625 C 307.269531 332.957031 281.140625 362.15625 246.449219 365.890625 C 246.230469 365.890625 246.011719 365.890625 245.792969 365.890625 Z M 85.296875 304.851562 C 81.5625 304.851562 78.710938 301.777344 78.710938 298.265625 L 78.710938 256.109375 C 78.710938 252.597656 81.5625 249.523438 85.296875 249.523438 C 88.808594 249.523438 91.882812 252.597656 91.882812 256.109375 L 91.882812 298.265625 C 91.882812 301.777344 88.808594 304.851562 85.296875 304.851562 Z M 85.296875 125.257812 C 81.5625 125.257812 78.710938 122.402344 78.710938 118.667969 L 78.710938 50.828125 C 78.710938 27.554688 97.59375 8.671875 120.863281 8.671875 L 322.636719 8.671875 C 326.367188 8.671875 329.222656 11.527344 329.222656 15.257812 C 329.222656 18.769531 326.367188 21.84375 322.636719 21.84375 L 120.863281 21.84375 C 104.835938 21.84375 91.882812 34.800781 91.882812 50.828125 L 91.882812 118.667969 C 91.882812 122.402344 88.808594 125.257812 85.296875 125.257812 Z M 85.296875 125.257812 " fill-opacity="1" fill-rule="evenodd"/></g><g clip-path="url(#29cb34f12a)"><path fill="#2980b9" d="M 368.304688 67.511719 L 300.679688 67.511719 C 296.949219 67.511719 294.09375 64.4375 294.09375 60.925781 L 294.09375 38.09375 C 294.09375 21.84375 307.269531 8.671875 323.515625 8.671875 L 345.46875 8.671875 C 361.71875 8.671875 374.890625 21.84375 374.890625 38.09375 L 374.890625 60.925781 C 374.890625 64.4375 371.816406 67.511719 368.304688 67.511719 Z M 307.269531 54.339844 L 361.71875 54.339844 L 361.71875 38.09375 C 361.71875 29.089844 354.253906 21.84375 345.46875 21.84375 L 323.515625 21.84375 C 314.511719 21.84375 307.269531 29.089844 307.269531 38.09375 Z M 307.269531 54.339844 " fill-opacity="1" fill-rule="evenodd"/></g><g clip-path="url(#99c41c26f4)"><path fill="#2980b9" d="M 246.230469 366.328125 L 101.761719 366.328125 C 64.21875 366.328125 33.703125 335.808594 33.703125 298.265625 C 33.703125 294.535156 36.554688 291.679688 40.289062 291.679688 L 246.230469 291.679688 C 248.867188 291.679688 251.0625 293.214844 252.160156 295.632812 C 253.257812 298.046875 252.816406 300.679688 251.0625 302.65625 C 234.59375 320.878906 234.375 337.347656 250.402344 354.691406 C 251.941406 355.789062 252.816406 357.765625 252.816406 359.742188 C 252.816406 363.253906 249.964844 366.328125 246.230469 366.328125 Z M 47.3125 304.851562 C 50.605469 332.078125 73.660156 353.15625 101.761719 353.15625 L 232.617188 353.15625 C 222.738281 337.347656 222.957031 320.878906 232.839844 304.851562 Z M 47.3125 304.851562 " fill-opacity="1" fill-rule="evenodd"/></g><path fill="#2980b9" d="M 76.074219 263.355469 C 34.140625 263.355469 0.109375 229.324219 0.109375 187.390625 C 0.109375 145.675781 34.140625 111.644531 76.074219 111.644531 C 117.792969 111.644531 151.820312 145.675781 151.820312 187.390625 C 151.820312 229.324219 117.792969 263.355469 76.074219 263.355469 Z M 76.074219 124.816406 C 41.386719 124.816406 13.28125 152.921875 13.28125 187.390625 C 13.28125 222.078125 41.386719 250.183594 76.074219 250.183594 C 110.546875 250.183594 138.648438 222.078125 138.648438 187.390625 C 138.648438 152.921875 110.546875 124.816406 76.074219 124.816406 Z M 76.074219 124.816406 " fill-opacity="1" fill-rule="evenodd"/><path fill="#2980b9" d="M 62.902344 215.710938 C 61.367188 215.710938 59.609375 215.054688 58.292969 213.738281 L 41.386719 196.613281 C 38.75 194.195312 38.75 190.023438 41.386719 187.390625 C 43.800781 184.753906 47.972656 184.753906 50.605469 187.390625 L 62.902344 199.683594 L 101.542969 161.261719 C 103.960938 158.628906 108.128906 158.628906 110.765625 161.261719 C 113.398438 163.898438 113.398438 168.070312 110.765625 170.484375 L 67.511719 213.738281 C 66.414062 215.054688 64.660156 215.710938 62.902344 215.710938 Z M 62.902344 215.710938 " fill-opacity="1" fill-rule="evenodd"/><path fill="#2980b9" d="M 259.625 66.632812 L 148.308594 66.632812 C 144.578125 66.632812 141.722656 63.5625 141.722656 60.046875 C 141.722656 56.316406 144.578125 53.460938 148.308594 53.460938 L 259.625 53.460938 C 263.136719 53.460938 266.210938 56.316406 266.210938 60.046875 C 266.210938 63.5625 263.136719 66.632812 259.625 66.632812 Z M 259.625 66.632812 " fill-opacity="1" fill-rule="evenodd"/><path fill="#2980b9" d="M 259.625 105.277344 L 148.308594 105.277344 C 144.578125 105.277344 141.722656 102.203125 141.722656 98.691406 C 141.722656 94.957031 144.578125 92.101562 148.308594 92.101562 L 259.625 92.101562 C 263.136719 92.101562 266.210938 94.957031 266.210938 98.691406 C 266.210938 102.203125 263.136719 105.277344 259.625 105.277344 Z M 259.625 105.277344 " fill-opacity="1" fill-rule="evenodd"/><path fill="#2980b9" d="M 259.625 143.917969 L 182.339844 143.917969 C 178.828125 143.917969 175.753906 141.0625 175.753906 137.332031 C 175.753906 133.820312 178.828125 130.746094 182.339844 130.746094 L 259.625 130.746094 C 263.136719 130.746094 266.210938 133.820312 266.210938 137.332031 C 266.210938 141.0625 263.136719 143.917969 259.625 143.917969 Z M 259.625 143.917969 " fill-opacity="1" fill-rule="evenodd"/><path fill="#2980b9" d="M 259.625 182.78125 L 182.339844 182.78125 C 178.828125 182.78125 175.753906 179.707031 175.753906 176.191406 C 175.753906 172.460938 178.828125 169.605469 182.339844 169.605469 L 259.625 169.605469 C 263.136719 169.605469 266.210938 172.460938 266.210938 176.191406 C 266.210938 179.707031 263.136719 182.78125 259.625 182.78125 Z M 259.625 182.78125 " fill-opacity="1" fill-rule="evenodd"/><path fill="#2980b9" d="M 259.625 221.421875 L 182.339844 221.421875 C 178.828125 221.421875 175.753906 218.347656 175.753906 214.835938 C 175.753906 211.101562 178.828125 208.246094 182.339844 208.246094 L 259.625 208.246094 C 263.136719 208.246094 266.210938 211.101562 266.210938 214.835938 C 266.210938 218.347656 263.136719 221.421875 259.625 221.421875 Z M 259.625 221.421875 " fill-opacity="1" fill-rule="evenodd"/><path fill="#2980b9" d="M 259.625 260.0625 L 148.308594 260.0625 C 144.578125 260.0625 141.722656 257.207031 141.722656 253.476562 C 141.722656 249.964844 144.578125 246.890625 148.308594 246.890625 L 259.625 246.890625 C 263.136719 246.890625 266.210938 249.964844 266.210938 253.476562 C 266.210938 257.207031 263.136719 260.0625 259.625 260.0625 Z M 259.625 260.0625 " fill-opacity="1" fill-rule="evenodd"/></svg>