<svg xmlns="http://www.w3.org/2000/svg" xmlns:xlink="http://www.w3.org/1999/xlink" width="500" zoomAndPan="magnify" viewBox="0 0 375 374.999991" height="500" preserveAspectRatio="xMidYMid meet" version="1.0"><path fill="#2980b9" d="M 319.078125 269.296875 C 353.625 294.140625 375 328.6875 375 367.03125 C 375 371.4375 371.4375 375 367.078125 375 L 7.921875 375 C 3.5625 375 0 371.4375 0 367.03125 C 0 328.6875 21.375 294.140625 55.921875 269.296875 C 89.71875 245.015625 136.265625 229.96875 187.5 229.96875 C 238.734375 229.96875 285.28125 245.015625 319.078125 269.296875 Z M 187.5 0 C 245.71875 0 292.921875 47.578125 292.921875 106.265625 C 292.921875 165 245.71875 212.578125 187.5 212.578125 C 129.28125 212.578125 82.078125 165 82.078125 106.265625 C 82.078125 47.578125 129.28125 0 187.5 0 Z M 187.5 0 " fill-opacity="1" fill-rule="evenodd"/></svg>