<svg xmlns="http://www.w3.org/2000/svg" xmlns:xlink="http://www.w3.org/1999/xlink" width="500" zoomAndPan="magnify" viewBox="0 0 375 374.999991" height="500" preserveAspectRatio="xMidYMid meet" version="1.0"><defs><clipPath id="227a25f55e"><path d="M 0 31.40625 L 373 31.40625 L 373 343.40625 L 0 343.40625 Z M 0 31.40625 " clip-rule="nonzero"/></clipPath></defs><g clip-path="url(#227a25f55e)"><path fill="#2980b9" d="M 241.511719 343.421875 C 230.078125 343.421875 220.535156 340.074219 214.835938 338.074219 C 210.59375 336.609375 206.191406 334.726562 201.429688 332.335938 C 191.585938 327.34375 184.78125 327.410156 174.820312 332.46875 C 167.367188 336.265625 157.1875 340.820312 144.621094 342.222656 C 141.441406 342.566406 138.265625 342.75 135.167969 342.75 C 102.902344 342.75 76.558594 324.160156 62.886719 291.75 C 55.875 275.09375 54.242188 257.78125 57.988281 241.707031 C 43.394531 237.65625 29.90625 228.652344 19.632812 215.808594 C 6.652344 199.574219 0.046875 180.738281 -0.00390625 159.824219 L 0.132812 156.632812 C 0.296875 153.539062 0.5625 148.976562 1.761719 143.90625 C 10.839844 105.046875 36.730469 93.082031 51.351562 89.414062 C 59.035156 87.492188 66.742188 86.867188 74.695312 87.78125 C 77.304688 77.183594 81.753906 67.519531 87.832031 59.351562 C 100.84375 41.914062 120.070312 31.914062 140.59375 31.914062 C 153.664062 31.914062 166.679688 35.976562 178.234375 43.660156 C 180.839844 45.394531 183.359375 47.308594 185.777344 49.382812 C 198.652344 37.761719 214.621094 31.414062 231.246094 31.414062 C 253.519531 31.414062 273.925781 42.585938 287.21875 62.066406 C 292.488281 69.785156 296.398438 78.578125 298.769531 87.960938 C 301.007812 87.722656 303.242188 87.601562 305.472656 87.601562 C 328.839844 87.601562 349.519531 100.078125 362.199219 121.824219 C 372.785156 139.925781 375.082031 163.335938 368.488281 186.042969 C 361.914062 208.679688 347.507812 227.15625 328.957031 236.742188 C 325.523438 238.515625 322.011719 240.003906 318.449219 241.195312 C 319.960938 247.441406 320.625 253.929688 320.445312 260.59375 C 320.191406 302.578125 289.386719 337.984375 248.734375 342.980469 C 246.320312 343.273438 243.894531 343.421875 241.511719 343.421875 Z M 188.308594 305.5 C 196.074219 305.5 203.789062 307.496094 211.894531 311.601562 C 215.6875 313.511719 219.15625 315 222.464844 316.144531 C 227.378906 317.867188 234.03125 320.203125 241.511719 320.203125 C 242.960938 320.203125 244.441406 320.109375 245.910156 319.933594 C 275.027344 316.355469 297.089844 290.738281 297.21875 260.351562 L 297.226562 260.054688 C 297.460938 252.109375 295.949219 244.578125 292.734375 237.6875 L 285.945312 223.132812 L 301.890625 221.246094 C 307.460938 220.589844 312.980469 218.859375 318.292969 216.113281 C 331.21875 209.433594 341.382812 196.117188 346.1875 179.566406 C 351.011719 162.949219 349.539062 146.171875 342.148438 133.53125 C 333.730469 119.09375 320.363281 110.824219 305.472656 110.824219 C 301.324219 110.824219 297.101562 111.488281 292.921875 112.804688 L 279.332031 117.078125 L 277.886719 102.902344 C 276.84375 92.65625 273.441406 83.0625 268.042969 75.15625 C 259.136719 62.109375 245.726562 54.632812 231.246094 54.632812 C 219.367188 54.632812 207.855469 59.75 198.835938 69.042969 C 197.644531 70.265625 196.417969 71.648438 194.988281 73.394531 L 186.199219 84.101562 L 177.195312 73.578125 C 173.617188 69.402344 169.636719 65.835938 165.367188 62.992188 C 157.640625 57.855469 149.070312 55.132812 140.59375 55.132812 C 127.472656 55.132812 115.03125 61.730469 106.453125 73.226562 C 100.535156 81.175781 96.785156 91.417969 95.605469 102.820312 L 94.136719 117.066406 L 80.503906 112.6875 C 75.132812 110.964844 70.59375 110.597656 67.734375 110.597656 C 64.175781 110.597656 60.5625 111.050781 56.996094 111.941406 C 40.136719 116.171875 29.152344 128.714844 24.363281 149.21875 C 23.609375 152.421875 23.449219 155.4375 23.304688 158.09375 L 23.210938 159.796875 C 23.253906 175.304688 28.148438 189.28125 37.765625 201.304688 C 47.265625 213.183594 60.417969 220.316406 73.84375 220.863281 L 91.167969 221.574219 L 83.914062 237.324219 C 77.597656 251.035156 77.726562 267.160156 84.285156 282.730469 C 94.296875 306.460938 112.363281 319.53125 135.167969 319.53125 C 137.417969 319.53125 139.734375 319.398438 142.054688 319.144531 C 150.882812 318.15625 158.574219 314.6875 164.289062 311.773438 C 172.597656 307.550781 180.449219 305.5 188.308594 305.5 Z M 188.308594 305.5 " fill-opacity="1" fill-rule="nonzero"/></g><path fill="#ecf0f1" d="M 352.167969 127.667969 C 341.625 109.585938 324.589844 99.210938 305.46875 99.210938 C 300.109375 99.210938 294.714844 100.066406 289.4375 101.726562 C 288.234375 89.910156 284.324219 78.414062 277.628906 68.613281 C 266.527344 52.34375 249.625 43.015625 231.246094 43.015625 C 216.1875 43.015625 201.726562 49.390625 190.503906 60.949219 C 188.90625 62.589844 187.433594 64.300781 186.015625 66.023438 C 181.90625 61.222656 177.1875 56.910156 171.800781 53.324219 C 162.167969 46.917969 151.375 43.523438 140.59375 43.523438 C 123.773438 43.523438 107.941406 51.8125 97.148438 66.28125 C 89.65625 76.351562 85.378906 88.800781 84.054688 101.628906 C 78.015625 99.691406 72.40625 98.984375 67.734375 98.984375 C 63.257812 98.984375 58.707031 99.542969 54.175781 100.679688 C 39.453125 104.371094 20.359375 115.328125 13.058594 146.578125 C 12.066406 150.765625 11.867188 154.566406 11.710938 157.488281 L 11.605469 158.632812 L 11.605469 159.796875 C 11.652344 178.023438 17.402344 194.425781 28.699219 208.550781 C 40.417969 223.203125 56.597656 231.773438 73.371094 232.460938 C 65.804688 248.875 65.554688 268.164062 73.585938 287.238281 C 86.5 317.851562 112.097656 334.136719 143.332031 330.679688 C 153.992188 329.488281 162.949219 325.488281 169.5625 322.113281 C 182.546875 315.515625 193.746094 315.421875 206.648438 321.960938 C 210.863281 324.078125 214.820312 325.789062 218.679688 327.121094 C 224.015625 328.992188 232.082031 331.8125 241.515625 331.8125 C 243.429688 331.8125 245.375 331.695312 247.3125 331.457031 C 282.21875 327.167969 308.675781 296.375 308.832031 260.398438 C 309.128906 250.382812 307.140625 241.101562 303.257812 232.773438 C 310.191406 231.953125 317.011719 229.84375 323.625 226.425781 C 339.375 218.289062 351.652344 202.378906 357.339844 182.804688 C 363.042969 163.144531 361.160156 143.046875 352.167969 127.667969 Z M 352.167969 127.667969 " fill-opacity="1" fill-rule="nonzero"/><path fill="#2980b9" d="M 274.617188 251.710938 C 274.511719 273.832031 258.71875 292.488281 238.023438 295.027344 C 232.316406 295.730469 227.09375 294 221.90625 292.167969 C 219.078125 291.1875 216.328125 289.972656 213.664062 288.640625 C 196.40625 279.875 179.230469 280.054688 162.019531 288.804688 C 156.875 291.429688 151.550781 293.671875 145.769531 294.3125 C 127.375 296.375 113.039062 287.113281 105.066406 268.175781 C 97.578125 250.402344 101.21875 233.621094 115.65625 222.265625 C 122.101562 217.203125 126.789062 211.476562 128.105469 203.230469 C 128.398438 201.441406 129.195312 199.714844 129.839844 198 C 137.566406 177.261719 152.847656 171.195312 172.679688 181.027344 C 173.082031 181.222656 173.546875 181.382812 173.890625 181.675781 C 182.539062 189.167969 190.328125 187.644531 199.878906 181.8125 C 217.988281 170.765625 233.800781 176.558594 242.746094 195.84375 C 244.09375 198.746094 245.324219 201.765625 246.144531 204.847656 C 248.210938 212.519531 252.34375 218.203125 259.199219 222.640625 C 269.5 229.296875 274.992188 239.105469 274.617188 251.710938 Z M 274.617188 251.710938 " fill-opacity="1" fill-rule="evenodd"/><path fill="#2980b9" d="M 191.414062 122.960938 C 191.183594 109.882812 195.773438 98.640625 204.820312 89.324219 C 218.796875 74.933594 239.136719 76.820312 250.460938 93.402344 C 260.988281 108.828125 259.859375 132.648438 247.910156 147.050781 C 239.207031 157.519531 225.816406 162.046875 213.839844 158.011719 C 200.144531 153.390625 193.433594 143 191.464844 129.160156 C 191.171875 127.136719 191.414062 125.023438 191.414062 122.960938 Z M 191.414062 122.960938 " fill-opacity="1" fill-rule="evenodd"/><path fill="#2980b9" d="M 149.09375 159.070312 C 139.160156 159.746094 131.203125 154.730469 124.742188 146.929688 C 112.839844 132.542969 112.355469 107.039062 123.550781 92.019531 C 133.234375 79.042969 148.46875 76.386719 161.949219 85.355469 C 180.640625 97.78125 187.144531 125.148438 175.910156 144.121094 C 170.039062 154.03125 161.5 159.3125 149.09375 159.070312 Z M 149.09375 159.070312 " fill-opacity="1" fill-rule="evenodd"/><path fill="#2980b9" d="M 254.695312 170.175781 C 255.332031 157.777344 261.621094 144.015625 275.875 134.84375 C 290.9375 125.132812 306.972656 129.28125 315.964844 144.691406 C 326.75 163.144531 317.867188 193.972656 298.929688 203.765625 C 277.335938 214.925781 254.671875 199.878906 254.695312 170.175781 Z M 254.695312 170.175781 " fill-opacity="1" fill-rule="evenodd"/><path fill="#2980b9" d="M 51.554688 162.800781 C 51.699219 161.285156 51.664062 158.472656 52.289062 155.816406 C 55.132812 143.703125 61.023438 133.492188 73.785156 130.300781 C 86.074219 127.238281 96.347656 132.335938 104.507812 141.664062 C 112.972656 151.363281 118.039062 162.621094 117.613281 175.617188 C 117.117188 190.792969 109.238281 201.335938 96.3125 205.574219 C 84.464844 209.449219 71.625 205.039062 62.226562 193.320312 C 55.460938 184.835938 51.582031 175.105469 51.554688 162.800781 Z M 51.554688 162.800781 " fill-opacity="1" fill-rule="evenodd"/></svg>